<mxfile host="65bd71144e" pages="4">
    <diagram id="J3gXUs6pl7XhHU_q2kVM" name="Record Creation">
        <mxGraphModel dx="1216" dy="707" grid="1" gridSize="10" guides="1" tooltips="1" connect="1" arrows="1" fold="1" page="1" pageScale="1" pageWidth="850" pageHeight="1100" math="0" shadow="0">
            <root>
                <mxCell id="0"/>
                <mxCell id="1" parent="0"/>
                <mxCell id="gUS2VFbxLd1oiNlG1fCp-10" value="" style="rounded=0;whiteSpace=wrap;html=1;fontFamily=Tahoma;fontSize=20;" parent="1" vertex="1">
                    <mxGeometry x="10" y="90" width="730" height="330" as="geometry"/>
                </mxCell>
                <mxCell id="gUS2VFbxLd1oiNlG1fCp-3" value="SQL08" style="rounded=0;whiteSpace=wrap;html=1;fontFamily=Tahoma;fontStyle=1;fontSize=32;align=left;spacingLeft=15;" parent="1" vertex="1">
                    <mxGeometry x="90" y="10" width="650" height="80" as="geometry"/>
                </mxCell>
                <mxCell id="gUS2VFbxLd1oiNlG1fCp-4" value="" style="rounded=0;whiteSpace=wrap;html=1;" parent="1" vertex="1">
                    <mxGeometry x="10" y="10" width="80" height="80" as="geometry"/>
                </mxCell>
                <mxCell id="gUS2VFbxLd1oiNlG1fCp-5" value="" style="shape=image;imageAspect=0;aspect=fixed;verticalLabelPosition=bottom;verticalAlign=top;image=data:image/png,iVBORw0KGgoAAAANSUhEUgAAAPoAAAD6CAIAAAAHjs1qAAAAAXNSR0IArs4c6QAAAARnQU1BAACxjwv8YQUAAAAJcEhZcwAAFiUAABYlAUlSJPAAAAfISURBVHhe7d1ZdhtHDEZhK0tJtpNhrRm2k2zFruPSaXfIZrOHAgrAf7+XKHkj6jZckhj64+vXr18ADT99/hMQQO4QQu4QQu4QQu4QQu4QQu4QQu4QQu4QQu4QQu4QQu4QQu4Qwjsix/v4+Pj8aihO6j5yP8Go47E40B3kviFF1qdwyh25F4z7IMGjV8xdtu99CiVI5O7Zt+k8y7yQWcrmblFGilnJvvAjquU+6rAZy6bsY6mQ+/2zLBb3EZpDS5z75QMTjPsIhXnmy/3aqZD4KVWHnCn3s2dA4kNUGnuC3E+Nm8RNZT+L0LkfHy6VO0t6NEFzPzhNKp8u10mFy/3I+Kg8oBQHFyh3Qq/h7TlOPMQQuUceEK6Jeabzc9+fC6GnFu1wZ+ZO6CLiHPS03HdGQOglRTjxCbkTurK5p+/9wRu0Lm7nlHfaGMV1u796PYQuaEoMftud1rH26txNd7zTdt98DYSOxrMNj+1O69ixWYLRjjfPndbxllvxEz4SldbxzKcK29yfH1BaxyvPbQxf8Ia50zrOsi5+wmUGmMUqd1Y7rjFd8E7bndZxnF0tXGYgxCT34d9QQ9yoojy2OzcZnGXUDJcZCCF3CCF3CCF3CCF3CPHInZ9L4iyjZtjuEELuEOKUO/cZHGdXi992p3hMx2UGsZiuRdfcWfDYZ12I93aneLzi0MaEywzF45lPFXPu7hSPNbcepn2rSvHoPEuYlntD8XBuYGbuTXu1RK9pytFPzr2jeDWzTjxE7s33R53o65t70FFy7+bOAqYiHG6s3LsIc8FAcQ40Yu5dnBnhsmiHGDf3Ltq8cFDMg4ueexdzdtgU+bBM/ioy61fLx5IFlOLQU+a+oPvpcp117twXdO/P+ZTJfQPdm8p+stVyXyP9ISqdZuXc10j/lKonqJL7GulvUjg1xdwfyNYveEzkvqHkA8ChNOR+QorHgOHvIPfBrB8J2dmSO4QMCTXHW8SAIcgdQsgdQsgdQsgdQsgdQsgdQsgdQsgdQsgdQsgdQsgdQsgdQsgdQsgdQsgdQsgdQsgdQsgdQsgdQsgdQsgdQsgdQsgdQsgdQsgdQsgdQsgdQsgdQsgdQvjAa/zw85+/fn51wH9//PP5lQs+3x23nIr7ILtngNxxTj/rX/76rf+rtbHpkzvec05805DuyR17IoT+4E735I4NASt/cC16csf/xA997Wz05I5PuUJfOx49uSNx6GtHoid3aTVCX9uPfkiovIkgpXqtNxa/9nrAdk+mZOgPNtc8212OQuuN3Zpnu6ch0vraes0PCZXcExAMfbEUPyRULjPRKbfejL3YkHto4q13A4sn97hofTGqeHIPitYfDBkFuUdE65vuD4Tcw6H1HTfHQu6x0Ppbd4ZD7oHQ+kGXR0TuUdD6KdcGRe4h0PoFF8ZF7kjsbPHkPh+r3Q25T0brN50aHbnPROtDHB8guUMIuU/Dah/o4BjJfQ5aH+7IMPm/mebwzP3f3//+/Oq7ws/Ywyt9xnafYO5qf9tEXm9HSu7Fbcbd/mPh6HeQu7c4t/aS0e8PltzVSW16cncV9gcylaLfGS+544fym57c/YRd7Q8KFP9qyOSODVXXPLnjpdTRby54cneS5SbzrNKmJ3ccUiN6cveQd7U/yBX988DJHafl3fTkjosyFk/u5srcZJ7FX/MPYyd33JXobkPuGCNF9OSOkYJHT+62Cl/cd4SKfj18coeVgGue3GEo2t2G3GEuTvTkDicRoid3uJobPbljAufolx/OkLshzZ9CHue/6ckdk3kWT+6Yz23NkzuicIie3BGLafTkjoiMoid3xDW8eHJHaGOLJ3cIIXcIIXeENvZ30uSOuIa//4LcEVEL3eK9RuSOWIxC78gdUZiG3pG7of7XKdv9SrwM69CXIyB3TGa90dfIHdM43F4ekDsm8A+9I3e4mhV6R+5wMjf0jtxt8cOZZm7o6+GTO2xN3+hr5A4rEW4vD8gd4wUMvSN3c1LX92ihP4zdJPf+6VmQEnajr7HdcVeK0Dty91D1PhM89OeBW+XOfaa8LBt9je2O0xLdXh4Y5s6CX6txn0kU+uaobbc7xZeRd6OvcZnxk3TBZwz91ZDNc2fB51Vjo695bHeKXyRa8HlD3xmv02WG4hOpt9QXfnd3iu8iL/gCoe8P1vVbVYoPq/BGX3PNvaH4JtSCrxT625F6595QfBAiG33tY2J8fcnJ6pN3CO5555Ws/MiflhO2+0J8zc+60si23szc7gvZNe+24MvLlHunGT3F33f8T8hAuXeC0VP8HadugzPv7puiPX6oJNx2X0iteRb8NWe/0Y+b+0Kke4o/62zrTYLcO4XoKf64C603aXJf1O6e4o+41nqTL/dF1e4pft/l1pvEuS/qdU/xr9xpvamQ+6JS9xT/7GbrTanc1wqkT/Fr91tvyua+ljd9iu+GtN5I5L6WLn2KH9V6I5f7s/gPgHLxA1tvyH1DwAdAs/ixrTfkfsL0x0An+uGhd+Q+mOkjsRxW7eKNWm/IPbF60duF3oV7vzuOs47DmcPLYbtXkH3Nuz235F5Hxuid/4Ai92qyRD/lJkbuNUWOfuK3HOReWbToJ4bekbuEud1Pr3xB7lo8u49T+YLcdVmkHzDxNXLHD2cfgOBxPyN3COFNBJDx5cs3Uj2BpRC4Hw4AAAAASUVORK5CYII=;" parent="1" vertex="1">
                    <mxGeometry x="15" y="15" width="70" height="70" as="geometry"/>
                </mxCell>
                <mxCell id="gUS2VFbxLd1oiNlG1fCp-6" value="SysproCompany100" style="rounded=0;whiteSpace=wrap;html=1;fontFamily=Tahoma;fontStyle=1;fontSize=20;align=left;spacingLeft=15;" parent="1" vertex="1">
                    <mxGeometry x="80" y="100" width="320" height="60" as="geometry"/>
                </mxCell>
                <mxCell id="gUS2VFbxLd1oiNlG1fCp-7" value="" style="rounded=0;whiteSpace=wrap;html=1;" parent="1" vertex="1">
                    <mxGeometry x="20" y="100" width="60" height="60" as="geometry"/>
                </mxCell>
                <mxCell id="gUS2VFbxLd1oiNlG1fCp-9" value="" style="shape=image;imageAspect=0;aspect=fixed;verticalLabelPosition=bottom;verticalAlign=top;fontFamily=Tahoma;fontSize=32;image=data:image/png,iVBORw0KGgoAAAANSUhEUgAAAPoAAAD6CAIAAAAHjs1qAAAAAXNSR0IArs4c6QAAAARnQU1BAACxjwv8YQUAAAAJcEhZcwAAFiUAABYlAUlSJPAAAAeQSURBVHhe7dPbkuK6AgTR/f8/PccRJIQ5DdMw5YvKyvWIZFuX5L8/0jTMXRMxd03E3DURc9dEzF0TMXdNxNw1EXPXRMxdEzF3TcTcNRFz10TMXRMx9+39tw/eroCH+AW6Gxtr1SuezguEcyFsbHoexAXj/hD7n8mUe9YrnM6lzbHJA/HJffCNQ/DJa7ls7lzapnj12Fjrpnh1v6vlzv3EeN1VsKsYr6t1hXvlKgK8aCbsPMCLqhTfNKf+PZ7XM07nezzfoO/uOeMv8bA+w6l9iYcHVvXX/BKPKcNpfozHhtTwj/wGz2gfnPJneGYkY/8XP8YDOgrn/gEeGMOgoXBUv2G2zsNN/IbZZxuuGI7nr5iqkXA3f8XU8wyUDkfyV0zVwLiq95h3hiEC4hjeY556cHPvMe9Y55fE7t9gkjpxi28w6UBn9sSm32CS+nGjbzDpEKdVxV5fYYauhdt9hRn7O6EttvgKM3Rd3PQrzNjT0YWxs1eYoavjvl9hxm4OjYw9/cCwZsLd/8DwPo5Ljd38wLDmQwE/MLyDg2pjH88Y09yo4RljWzuiOXbwjDHpwEJ2z461P2NMuqOMZ4xt54TcGZCe0ccKA9vZNz5WvcKA9AqVrDCwkR37Y70rDEjv0coKA1swd42FVlYY2MJeCbLSFQak31DMCgOxg3LnV+kzdHPHrzFz14jo5o5fY7uEyBpXGJA+QzcrDGSOyJ1fpW9Qzx2/Zsxdg6KeO37NmLsGRT13/Joxdw2Keu74NWPuGhT13PFrxtw1KOq549fMEbkvGJA+QzcrDGTMXSOimxUGMuauEdHNCgOZg3JfMCb9hmKeMZY5LvcFw9JfkcszxjLmrrHQyg8MZw7NfcEM6RUqeYUZmaNzXzBJekYfbzApc0LuC+ZJd5TxHvMy5+S+YKp0YDCn5b5gtuZGDb9hdubM3Bc8oFnRwQd4IHNy7jc8pplw9x/jscwQuS94UnPg1r/Bk5lRcr/heV0XN/09ns+MlfsNb9G1cLv/irdkRsz9hnepHzea4V2ZcXO/4Y3qxC1ugTdmRs/9hveqBze3Hd6b6cj9hrdrbNzW1nh7pin3Bz6jkXA3u+EzmcrcH/iezsNN7I/vZbpzf+DDOhBHfxS+mrlI7g+sQPvglM/ACjJXy32N1SjDaZ6N1WSunPsaK9NnOLWRsLLMLLmvsUo943RGxSozM+b+f1j0fNh/CRadMfcX2Ma1sLdabCNj7l9ge2NjrZfD9jLmvjGOYDd8Zj7sP2Pu6kBbGXNXB9rKmLs60FbG3NWBtjLmrg60lTF3daCtjLmrA21lzF0daCtj7upAWxlzVwfaypi7OtBWxtzVgbYy5q4OtJUxd3WgrYy5qwNtZcxdHWgrY+7qQFsZc1cH2sqYuzrQVsbc1YG2MuauDrSVMXd1oK2MuasDbWXMXR1oK2Pu6kBbGXNXB9rKmLs60FbG3NWBtjLmrg60lTF3daCtjLmrA21lzF0daCtj7upAWxlzVwfaypi7OtBWxtzVgbYy5q4OtJUxd3WgrYy5qwNtZcxdHWgrY+7qQFsZc1cH2sqYuzrQVsbc1YG2MuauDrSVMXd1oK2MuasDbWXMXR1oK2Pu6kBbGXNXB9rKmLs60FbG3NWBtjLmrg60lTF3daCtjLmrA21lzF0daCtj7upAWxlzVwfaypi7OtBWxtzVgbYy5q4OtJUxd3WgrYy5qwNtZcxdHWgrY+7qQFsZc1cH2sqYuzrQVsbc1YG2MuauDrSVMXd1oK2MuasDbWXMXR1oK2Pu6kBbGXNXB9rKmLs60FbG3NWBtjLmrg60lTF3daCtjLmrA21lzF0daCtj7upAWxlzVwfaypi7OtBWxtzVgbYy5q4OtJUxd3WgrYy5qwNtZcxdHWgrY+7qQFsZc1cH2sqYuzrQVsbc1YG2MuauDrSVMXd1oK2MuasDbWXMXR1oK2Pu6kBbGXNXB9rKmLs60FbG3NWBtjLmrg60lTF3daCtjLmrA21lzF0daCtj7upAWxlzVwfaypi7OtBWxtzVgbYy5q4OtJUxd3WgrYy5qwNtZcxdHWgrY+7qQFsZc1cH2sqYuzrQVmaX3BesUdoCVcXMXQWoKmbuKkBVsb1yX7BSKUNPWzB3jY6etrBj7gvWK/0rStrIvrkvWLX0PRrajrlrXDS0nd1zX7B26RvUs6kjcl+wA+kzdLO1g3JfsA/pNxSzg+NyX7Ab6T1a2cehuS/Yk/QKlezm6NwX7Ex6Rh97OiH3BfuT7ihjZ+fkfsNGNTdqOMSZuS/YsWZFB0c5Ofcbtq6ZcPfHGiL3G45BV8d9n2Gg3G84El0U13yS4XJfcDC6Fm73VCPmfsMhqR83OoBxc3/gzNSG+xtJQe43HKEacGfjqcn9gRPVeLihgfXl/sAZ62zcR4Pi3B84dR2L069yhdwfuAftibPudKnc17gcbYEz7XfZ3Ne4NH2Ds7uWKXJf4zL1Cmd0XdPl/hNXPR/2PxNzf4EcroW9zc1T+ALhjI216hVPZ2NEtw++oX/lCWoi5q6JmLsmYu6aiLlrIuauiZi7JmLumoi5ayLmromYuyZi7pqIuWsaf/78D1jXGA95li2wAAAAAElFTkSuQmCC;" parent="1" vertex="1">
                    <mxGeometry x="30" y="110" width="40" height="40" as="geometry"/>
                </mxCell>
                <mxCell id="gUS2VFbxLd1oiNlG1fCp-11" value="" style="rounded=0;whiteSpace=wrap;html=1;fontFamily=Tahoma;fontSize=20;" parent="1" vertex="1">
                    <mxGeometry x="20" y="160" width="380" height="250" as="geometry"/>
                </mxCell>
                <mxCell id="gUS2VFbxLd1oiNlG1fCp-1" value="[trg_AdmSignatureLog_625100_AfterUpdate]&lt;br&gt;on [dbo].[AdmSignatureLog] after update" style="rounded=0;whiteSpace=wrap;html=1;" parent="1" vertex="1">
                    <mxGeometry x="75" y="167.5" width="320" height="50" as="geometry"/>
                </mxCell>
                <mxCell id="gUS2VFbxLd1oiNlG1fCp-2" value="The trigger on the AdmSignatureLog, inserts a record on the SorMaster_Process_Staged table setting the SalesOrder, ProcessType, and OptionalParm1. The ProcessType = 0 for DisptachNotes automation." style="whiteSpace=wrap;html=1;" parent="1" vertex="1">
                    <mxGeometry x="25" y="217.5" width="370" height="60" as="geometry"/>
                </mxCell>
                <mxCell id="gUS2VFbxLd1oiNlG1fCp-12" value="" style="rounded=0;whiteSpace=wrap;html=1;" parent="1" vertex="1">
                    <mxGeometry x="25" y="167.5" width="50" height="50" as="geometry"/>
                </mxCell>
                <mxCell id="gUS2VFbxLd1oiNlG1fCp-13" value="SysproDocument" style="rounded=0;whiteSpace=wrap;html=1;fontFamily=Tahoma;fontStyle=1;fontSize=20;align=left;spacingLeft=15;" parent="1" vertex="1">
                    <mxGeometry x="485" y="100" width="250" height="60" as="geometry"/>
                </mxCell>
                <mxCell id="gUS2VFbxLd1oiNlG1fCp-14" value="" style="rounded=0;whiteSpace=wrap;html=1;" parent="1" vertex="1">
                    <mxGeometry x="425" y="100" width="60" height="60" as="geometry"/>
                </mxCell>
                <mxCell id="gUS2VFbxLd1oiNlG1fCp-15" value="" style="shape=image;imageAspect=0;aspect=fixed;verticalLabelPosition=bottom;verticalAlign=top;fontFamily=Tahoma;fontSize=32;image=data:image/png,iVBORw0KGgoAAAANSUhEUgAAAPoAAAD6CAIAAAAHjs1qAAAAAXNSR0IArs4c6QAAAARnQU1BAACxjwv8YQUAAAAJcEhZcwAAFiUAABYlAUlSJPAAAAeQSURBVHhe7dPbkuK6AgTR/f8/PccRJIQ5DdMw5YvKyvWIZFuX5L8/0jTMXRMxd03E3DURc9dEzF0TMXdNxNw1EXPXRMxdEzF3TcTcNRFz10TMXRMx9+39tw/eroCH+AW6Gxtr1SuezguEcyFsbHoexAXj/hD7n8mUe9YrnM6lzbHJA/HJffCNQ/DJa7ls7lzapnj12Fjrpnh1v6vlzv3EeN1VsKsYr6t1hXvlKgK8aCbsPMCLqhTfNKf+PZ7XM07nezzfoO/uOeMv8bA+w6l9iYcHVvXX/BKPKcNpfozHhtTwj/wGz2gfnPJneGYkY/8XP8YDOgrn/gEeGMOgoXBUv2G2zsNN/IbZZxuuGI7nr5iqkXA3f8XU8wyUDkfyV0zVwLiq95h3hiEC4hjeY556cHPvMe9Y55fE7t9gkjpxi28w6UBn9sSm32CS+nGjbzDpEKdVxV5fYYauhdt9hRn7O6EttvgKM3Rd3PQrzNjT0YWxs1eYoavjvl9hxm4OjYw9/cCwZsLd/8DwPo5Ljd38wLDmQwE/MLyDg2pjH88Y09yo4RljWzuiOXbwjDHpwEJ2z461P2NMuqOMZ4xt54TcGZCe0ccKA9vZNz5WvcKA9AqVrDCwkR37Y70rDEjv0coKA1swd42FVlYY2MJeCbLSFQak31DMCgOxg3LnV+kzdHPHrzFz14jo5o5fY7uEyBpXGJA+QzcrDGSOyJ1fpW9Qzx2/Zsxdg6KeO37NmLsGRT13/Joxdw2Keu74NWPuGhT13PFrxtw1KOq549fMEbkvGJA+QzcrDGTMXSOimxUGMuauEdHNCgOZg3JfMCb9hmKeMZY5LvcFw9JfkcszxjLmrrHQyg8MZw7NfcEM6RUqeYUZmaNzXzBJekYfbzApc0LuC+ZJd5TxHvMy5+S+YKp0YDCn5b5gtuZGDb9hdubM3Bc8oFnRwQd4IHNy7jc8pplw9x/jscwQuS94UnPg1r/Bk5lRcr/heV0XN/09ns+MlfsNb9G1cLv/irdkRsz9hnepHzea4V2ZcXO/4Y3qxC1ugTdmRs/9hveqBze3Hd6b6cj9hrdrbNzW1nh7pin3Bz6jkXA3u+EzmcrcH/iezsNN7I/vZbpzf+DDOhBHfxS+mrlI7g+sQPvglM/ACjJXy32N1SjDaZ6N1WSunPsaK9NnOLWRsLLMLLmvsUo943RGxSozM+b+f1j0fNh/CRadMfcX2Ma1sLdabCNj7l9ge2NjrZfD9jLmvjGOYDd8Zj7sP2Pu6kBbGXNXB9rKmLs60FbG3NWBtjLmrg60lTF3daCtjLmrA21lzF0daCtj7upAWxlzVwfaypi7OtBWxtzVgbYy5q4OtJUxd3WgrYy5qwNtZcxdHWgrY+7qQFsZc1cH2sqYuzrQVsbc1YG2MuauDrSVMXd1oK2MuasDbWXMXR1oK2Pu6kBbGXNXB9rKmLs60FbG3NWBtjLmrg60lTF3daCtjLmrA21lzF0daCtj7upAWxlzVwfaypi7OtBWxtzVgbYy5q4OtJUxd3WgrYy5qwNtZcxdHWgrY+7qQFsZc1cH2sqYuzrQVsbc1YG2MuauDrSVMXd1oK2MuasDbWXMXR1oK2Pu6kBbGXNXB9rKmLs60FbG3NWBtjLmrg60lTF3daCtjLmrA21lzF0daCtj7upAWxlzVwfaypi7OtBWxtzVgbYy5q4OtJUxd3WgrYy5qwNtZcxdHWgrY+7qQFsZc1cH2sqYuzrQVsbc1YG2MuauDrSVMXd1oK2MuasDbWXMXR1oK2Pu6kBbGXNXB9rKmLs60FbG3NWBtjLmrg60lTF3daCtjLmrA21lzF0daCtj7upAWxlzVwfaypi7OtBWxtzVgbYy5q4OtJUxd3WgrYy5qwNtZcxdHWgrY+7qQFsZc1cH2sqYuzrQVsbc1YG2MuauDrSVMXd1oK2MuasDbWXMXR1oK2Pu6kBbGXNXB9rKmLs60FbG3NWBtjLmrg60lTF3daCtjLmrA21lzF0daCtj7upAWxlzVwfaypi7OtBWxtzVgbYy5q4OtJUxd3WgrYy5qwNtZcxdHWgrY+7qQFsZc1cH2sqYuzrQVmaX3BesUdoCVcXMXQWoKmbuKkBVsb1yX7BSKUNPWzB3jY6etrBj7gvWK/0rStrIvrkvWLX0PRrajrlrXDS0nd1zX7B26RvUs6kjcl+wA+kzdLO1g3JfsA/pNxSzg+NyX7Ab6T1a2cehuS/Yk/QKlezm6NwX7Ex6Rh97OiH3BfuT7ihjZ+fkfsNGNTdqOMSZuS/YsWZFB0c5Ofcbtq6ZcPfHGiL3G45BV8d9n2Gg3G84El0U13yS4XJfcDC6Fm73VCPmfsMhqR83OoBxc3/gzNSG+xtJQe43HKEacGfjqcn9gRPVeLihgfXl/sAZ62zcR4Pi3B84dR2L069yhdwfuAftibPudKnc17gcbYEz7XfZ3Ne4NH2Ds7uWKXJf4zL1Cmd0XdPl/hNXPR/2PxNzf4EcroW9zc1T+ALhjI216hVPZ2NEtw++oX/lCWoi5q6JmLsmYu6aiLlrIuauiZi7JmLumoi5ayLmromYuyZi7pqIuWsaf/78D1jXGA95li2wAAAAAElFTkSuQmCC;" parent="1" vertex="1">
                    <mxGeometry x="435" y="110" width="40" height="40" as="geometry"/>
                </mxCell>
                <mxCell id="gUS2VFbxLd1oiNlG1fCp-16" value="" style="rounded=0;whiteSpace=wrap;html=1;fontFamily=Tahoma;fontSize=20;" parent="1" vertex="1">
                    <mxGeometry x="425" y="160" width="310" height="250" as="geometry"/>
                </mxCell>
                <mxCell id="gUS2VFbxLd1oiNlG1fCp-17" value="SOH.SorMaster_Process_Staged" style="rounded=0;whiteSpace=wrap;html=1;" parent="1" vertex="1">
                    <mxGeometry x="480" y="170" width="250" height="50" as="geometry"/>
                </mxCell>
                <mxCell id="gUS2VFbxLd1oiNlG1fCp-19" value="" style="rounded=0;whiteSpace=wrap;html=1;" parent="1" vertex="1">
                    <mxGeometry x="430" y="170" width="50" height="50" as="geometry"/>
                </mxCell>
                <mxCell id="gUS2VFbxLd1oiNlG1fCp-20" value="" style="shape=image;imageAspect=0;aspect=fixed;verticalLabelPosition=bottom;verticalAlign=top;fontFamily=Tahoma;fontSize=20;image=data:image/png,iVBORw0KGgoAAAANSUhEUgAAAPoAAAD6CAIAAAAHjs1qAAAAAXNSR0IArs4c6QAAAARnQU1BAACxjwv8YQUAAAAJcEhZcwAAFiUAABYlAUlSJPAAAAMUSURBVHhe7duxquMwEEDRzP7/P+vBojpYuLFzz2kyjUCCy4CLzFrrAw3/9i8EyJ0QuRMid0LkTojcCZE7IXInRO6EyJ0QuRMid0LkTojcCZE7IXInRO6EnP2baWb2BM9wFLDtTojcCZE7IXInRO6EyJ0QuRMid0LkTojcCZE7IXInRO6EyJ0QuRMid0LkTojcCZE7IXInRO6EyJ0QuRMid0LkTojcCZE7IXInRO6EyJ0QuRMid0LkTojcCZE7IXInRO6EyJ0QuRMid0LkTojcCZE7IXInRO6EyJ0QuRMid0LkTsistfZ4wczs6b+js4/1k4/67tVPvnN5250QuRMid0LkTojcCZE7IXInRO6EyJ0QuRMid0LkTojcCZE7IXInRO6EyJ0QuRMid0LkTojcCZE7IXInRO6EyJ0QuRMid0LkTojcCZE7IXInRO6EyJ0QuRMid0LkTojcCZE7IXInRO6EyJ0QuRMid0LkTojcCZm11h4vmJk9wTMcBWy7EyJ3QuROiNwJufWpenT2sX7yUd+9+sl3Lm+7EyJ3QuROiNwJkTshcidE7oTInRC5EyJ3QuROiNwJkTshcidE7oTInRC5EyJ3QuROiNwJkTshcidE7oTInRC5EyJ3QuROiNwJkTshcidE7oTInRC5EyJ3QuROiNwJkTshcidE7oTInRC5EyJ3QuROiNwJkTshcidE7oTInRC5EyJ3QuROiNwJkTshcidE7oTInRC5EyJ3QuROiNwJmbXWHi+YmT3BMxwFbLsTIndC5E6I3Am59al6dPaxfvJR3736yXcub7sTIndC5E6I3AmROyFyJ0TuhMidELkTIndC5E6I3AmROyFyJ0TuhMidELkTIndC5E6I3AmROyFyJ0TuhMidELkTIndC5E6I3AmROyFyJ0TuhMidELkTIndC5E6I3AmROyFyJ0TuhMidELkTIndC5E6I3AmROyFyJ0TuhMxaa48XzMye4BmOArbdCZE7IXInRO6EnH2qwqvZ7oTInRC5EyJ3QuROiNwJkTshcidE7oTInRC5k/H5/AHoBUzR1hr1BgAAAABJRU5ErkJggg==;" parent="1" vertex="1">
                    <mxGeometry x="436" y="175" width="40" height="40" as="geometry"/>
                </mxCell>
                <mxCell id="gUS2VFbxLd1oiNlG1fCp-21" value="" style="shape=image;imageAspect=0;aspect=fixed;verticalLabelPosition=bottom;verticalAlign=top;fontFamily=Tahoma;fontSize=20;image=data:image/png,iVBORw0KGgoAAAANSUhEUgAAAPoAAAD6CAYAAACI7Fo9AAAAAXNSR0IArs4c6QAAAARnQU1BAACxjwv8YQUAAAAJcEhZcwAAFiUAABYlAUlSJPAAAAWmSURBVHhe7d3rTuNIFIVRMu//zhmiCQPiGsd21amz15JanV/dCOVju4wFl+urF6C1f+5/A40JHQIIHQIIHQIIHQIIHQIIHQIIHQIIHQIIHQIIHQIIHQIIHQIIHQIIHQIIHQIIHQLs+gkzl8vl/go4254fBmXRIYDQIYDQIYDQIYDQIYDQIYDQIYDQIYDQIYDQIYDQIYDQIYDQIYDQIYDQIYDQIYDQIYDQIYDQIYDQIYDQIYDQIYDQIYDQIYDQIYDQIYDQIYDQIYDQIYDQIYDQIYDQIYDQIYDQIYDQIYDQIYDQIYDQIYDQIYDQIYDQIYDQIYDQIYDQIYDQIYDQIYDQIYDQIYDQIcDl+ur+erPL5XJ/9W7HPwfcHd2WRYcAQocAQocAQocAQocAQocAQocAQocAQocAQocAQocAQocAQocAQocAQocAQocAQocAQocAQocAQocAQocAQocAQocAQocAQocAQocAQocAQl/E7Xdxvf2BrYS+gM9xC56thL4wwfMooRf3SMiC5y9CL2xrvILnJ0Ivak+wguczoTcmeN4IvaCj4xQ8Qi/mzCAFn0vogQSfR+iFjI5P8DmEXsTM4ATfn9D5n+D7EnoB1eISfD9Cn6xyUGLvQ+j8yrr3IPSJVgpI8GsT+iSrRiP4NQmdpwh+LUKfoFMggl+D0AfrGoXgaxM6hxJ8TUIfKCkAwdci9EFS3/SCr0HoDCH4uYQ+gDf4O8HPIfSTeVN/z+dlLKFDAKGfyGpRhdBPIvLfXa/X+ytGEDpD3QIX+XhCP4E1/57A5xH6wUT+lRWfT+icRuB1CP1A1vydwGsR+kFE/h8rXpPQOYTAaxP6AdLXXOD1CX2n5Mit+DqEzmYCX4/Q2UTgaxL6TilvfCu+NqEfoHMEAu9B6AfqFIXAexH6CVYPROD9CP0kK8ZixfsS+klW+v66wPsT+glWi5z+hH6wVSK34lmEfqAVIhd4JqEfZJXIyST0A1SP3Ioj9J0qRy5w3gh9h+qRwxuhP6n65foK9wwYR+hPWCWi28cpeG6EHkDwCH2jlYMRey6hb9AhFOueSegP6haH4LMI/QGdgxB7BqH/QQh0IPRfiJwuhP6DlMg9QZdB6N9IiNxz8FmE/klK5GQR+gfdI7fiuYR+lxA5uYT+qnPkVpyb+NC7Ri5wPooOvXPk8FFs6B0jt+L8JDL0rpHDT+JC7xa5FecRUaF3ilzgbBF9M25VAmcroS/EivOsqNBXjkTg7BG36Kut4mofLzXFXrpXD0jgHCn+jF4xKIFzNDfj7ioEX/GLDj0I/YOZ32cXOGcS+t2syK04Iwj91YzIBc5IQp9A4IwWH/rINbfizBId+uhL9tv/N+teANlcuk8gdkaLDX12bNadkSJDrxSY2BkhLvSKYVl3zuaMXojYOUtU6EIiVUzoIidZROirRO5hGs7ijF6AJ+Y4W/vQq6+5wBmhdeiVI7fijNQ29OqRw0jO6ANZcWZpGXq1NRc4s7ULvWLkMFur0CtFbsWpxBn9BAKnmjahV1hzK05VLUKfHbnAqW750CtEDtU5oz/JirOSpUOfteYCZzXLhj4jcivOqpYMfXTkAmd1zuh/EDgdLBf6qDW34nSyVOgjIhc4Hbl0/0DgdLVM6GeuuRWnuyVCPzty6K586GdFbsVJEndGFziJSod+9JoLnFRlQz8ycitOupKhHx05pGt7Rrfi8K5c6HvXXODwVanQj4gc+KpM6Hsit+Lwu+XP6AKHv5UI/Zk1t+LwuOmhb41c4LDd1NCfiRzYbokzuhWHfaaF/uiaCxz2mxL6I5FbcThOuUt3gcPxSoUucDjHlNA/B23F4VyX18CeLuyZB12A5+wZw3JndOB4QocAQocAQocAu27GAWuw6BBA6BBA6BBA6BBA6BBA6BBA6BBA6BBA6BBA6BBA6NDey8u/gyULA6Vi3soAAAAASUVORK5CYII=;" parent="1" vertex="1">
                    <mxGeometry x="27.5" y="170" width="45" height="45" as="geometry"/>
                </mxCell>
                <mxCell id="gUS2VFbxLd1oiNlG1fCp-22" style="edgeStyle=orthogonalEdgeStyle;rounded=0;orthogonalLoop=1;jettySize=auto;html=1;exitX=1;exitY=0.5;exitDx=0;exitDy=0;entryX=0;entryY=0.5;entryDx=0;entryDy=0;fontFamily=Tahoma;fontSize=20;" parent="1" source="gUS2VFbxLd1oiNlG1fCp-2" target="gUS2VFbxLd1oiNlG1fCp-19" edge="1">
                    <mxGeometry relative="1" as="geometry">
                        <Array as="points">
                            <mxPoint x="410" y="247"/>
                            <mxPoint x="410" y="195"/>
                        </Array>
                    </mxGeometry>
                </mxCell>
                <mxCell id="gUS2VFbxLd1oiNlG1fCp-26" value="[SOH].[usp_Stage_SalesOrders_For_BackOrder]" style="rounded=0;whiteSpace=wrap;html=1;" parent="1" vertex="1">
                    <mxGeometry x="75" y="290" width="320" height="50" as="geometry"/>
                </mxCell>
                <mxCell id="gUS2VFbxLd1oiNlG1fCp-27" value="" style="rounded=0;whiteSpace=wrap;html=1;" parent="1" vertex="1">
                    <mxGeometry x="25" y="290" width="50" height="50" as="geometry"/>
                </mxCell>
                <mxCell id="gUS2VFbxLd1oiNlG1fCp-28" value="" style="shape=image;imageAspect=0;aspect=fixed;verticalLabelPosition=bottom;verticalAlign=top;fontFamily=Tahoma;fontSize=20;image=data:image/png,iVBORw0KGgoAAAANSUhEUgAAAPoAAAD6CAYAAACI7Fo9AAAAAXNSR0IArs4c6QAAAARnQU1BAACxjwv8YQUAAAAJcEhZcwAAFiUAABYlAUlSJPAAAAWmSURBVHhe7d3rTuNIFIVRMu//zhmiCQPiGsd21amz15JanV/dCOVju4wFl+urF6C1f+5/A40JHQIIHQIIHQIIHQIIHQIIHQIIHQIIHQIIHQIIHQIIHQIIHQIIHQIIHQIIHQIIHQLs+gkzl8vl/go4254fBmXRIYDQIYDQIYDQIYDQIYDQIYDQIYDQIYDQIYDQIYDQIYDQIYDQIYDQIYDQIYDQIYDQIYDQIYDQIYDQIYDQIYDQIYDQIYDQIYDQIYDQIYDQIYDQIYDQIYDQIYDQIYDQIYDQIYDQIYDQIYDQIYDQIYDQIYDQIYDQIYDQIYDQIYDQIYDQIYDQIYDQIYDQIYDQIYDQIcDl+ur+erPL5XJ/9W7HPwfcHd2WRYcAQocAQocAQocAQocAQocAQocAQocAQocAQocAQocAQocAQocAQocAQocAQocAQocAQocAQocAQocAQocAQocAQocAQocAQocAQocAQocAQl/E7Xdxvf2BrYS+gM9xC56thL4wwfMooRf3SMiC5y9CL2xrvILnJ0Ivak+wguczoTcmeN4IvaCj4xQ8Qi/mzCAFn0vogQSfR+iFjI5P8DmEXsTM4ATfn9D5n+D7EnoB1eISfD9Cn6xyUGLvQ+j8yrr3IPSJVgpI8GsT+iSrRiP4NQmdpwh+LUKfoFMggl+D0AfrGoXgaxM6hxJ8TUIfKCkAwdci9EFS3/SCr0HoDCH4uYQ+gDf4O8HPIfSTeVN/z+dlLKFDAKGfyGpRhdBPIvLfXa/X+ytGEDpD3QIX+XhCP4E1/57A5xH6wUT+lRWfT+icRuB1CP1A1vydwGsR+kFE/h8rXpPQOYTAaxP6AdLXXOD1CX2n5Mit+DqEzmYCX4/Q2UTgaxL6TilvfCu+NqEfoHMEAu9B6AfqFIXAexH6CVYPROD9CP0kK8ZixfsS+klW+v66wPsT+glWi5z+hH6wVSK34lmEfqAVIhd4JqEfZJXIyST0A1SP3Ioj9J0qRy5w3gh9h+qRwxuhP6n65foK9wwYR+hPWCWi28cpeG6EHkDwCH2jlYMRey6hb9AhFOueSegP6haH4LMI/QGdgxB7BqH/QQh0IPRfiJwuhP6DlMg9QZdB6N9IiNxz8FmE/klK5GQR+gfdI7fiuYR+lxA5uYT+qnPkVpyb+NC7Ri5wPooOvXPk8FFs6B0jt+L8JDL0rpHDT+JC7xa5FecRUaF3ilzgbBF9M25VAmcroS/EivOsqNBXjkTg7BG36Kut4mofLzXFXrpXD0jgHCn+jF4xKIFzNDfj7ioEX/GLDj0I/YOZ32cXOGcS+t2syK04Iwj91YzIBc5IQp9A4IwWH/rINbfizBId+uhL9tv/N+teANlcuk8gdkaLDX12bNadkSJDrxSY2BkhLvSKYVl3zuaMXojYOUtU6EIiVUzoIidZROirRO5hGs7ijF6AJ+Y4W/vQq6+5wBmhdeiVI7fijNQ29OqRw0jO6ANZcWZpGXq1NRc4s7ULvWLkMFur0CtFbsWpxBn9BAKnmjahV1hzK05VLUKfHbnAqW750CtEDtU5oz/JirOSpUOfteYCZzXLhj4jcivOqpYMfXTkAmd1zuh/EDgdLBf6qDW34nSyVOgjIhc4Hbl0/0DgdLVM6GeuuRWnuyVCPzty6K586GdFbsVJEndGFziJSod+9JoLnFRlQz8ycitOupKhHx05pGt7Rrfi8K5c6HvXXODwVanQj4gc+KpM6Hsit+Lwu+XP6AKHv5UI/Zk1t+LwuOmhb41c4LDd1NCfiRzYbokzuhWHfaaF/uiaCxz2mxL6I5FbcThOuUt3gcPxSoUucDjHlNA/B23F4VyX18CeLuyZB12A5+wZw3JndOB4QocAQocAQocAu27GAWuw6BBA6BBA6BBA6BBA6BBA6BBA6BBA6BBA6BBA6BBA6NDey8u/gyULA6Vi3soAAAAASUVORK5CYII=;" parent="1" vertex="1">
                    <mxGeometry x="27.5" y="292.5" width="45" height="45" as="geometry"/>
                </mxCell>
                <mxCell id="gUS2VFbxLd1oiNlG1fCp-31" style="edgeStyle=orthogonalEdgeStyle;rounded=0;orthogonalLoop=1;jettySize=auto;html=1;exitX=1;exitY=0.5;exitDx=0;exitDy=0;entryX=0;entryY=0.5;entryDx=0;entryDy=0;fontFamily=Tahoma;fontSize=20;" parent="1" source="gUS2VFbxLd1oiNlG1fCp-30" target="gUS2VFbxLd1oiNlG1fCp-19" edge="1">
                    <mxGeometry relative="1" as="geometry">
                        <Array as="points">
                            <mxPoint x="410" y="365"/>
                            <mxPoint x="410" y="195"/>
                        </Array>
                    </mxGeometry>
                </mxCell>
                <mxCell id="gUS2VFbxLd1oiNlG1fCp-30" value="This procedure handles searching for retail sales orders to stage that have items within back order" style="whiteSpace=wrap;html=1;" parent="1" vertex="1">
                    <mxGeometry x="25" y="340" width="370" height="50" as="geometry"/>
                </mxCell>
            </root>
        </mxGraphModel>
    </diagram>
    <diagram id="C5RBs43oDa-KdzZeNtuy" name="Main Service Routine">
        <mxGraphModel dx="1013" dy="589" grid="1" gridSize="10" guides="1" tooltips="1" connect="1" arrows="1" fold="1" page="1" pageScale="1" pageWidth="1169" pageHeight="827" math="0" shadow="0">
            <root>
                <mxCell id="WIyWlLk6GJQsqaUBKTNV-0"/>
                <mxCell id="WIyWlLk6GJQsqaUBKTNV-1" parent="WIyWlLk6GJQsqaUBKTNV-0"/>
                <mxCell id="wjYz56TfztWMbCe7uFEH-0" value="GWC_Service_Order_Handler" style="rounded=0;whiteSpace=wrap;html=1;fontFamily=Tahoma;fontStyle=1;fontSize=20;align=left;spacingLeft=15;" parent="WIyWlLk6GJQsqaUBKTNV-1" vertex="1">
                    <mxGeometry x="30" y="10" width="1130" height="60" as="geometry"/>
                </mxCell>
                <mxCell id="wjYz56TfztWMbCe7uFEH-2" value="" style="rounded=0;whiteSpace=wrap;html=1;fontFamily=Tahoma;fontSize=20;" parent="WIyWlLk6GJQsqaUBKTNV-1" vertex="1">
                    <mxGeometry x="30" y="70" width="1130" height="730" as="geometry"/>
                </mxCell>
                <mxCell id="WIyWlLk6GJQsqaUBKTNV-2" value="" style="rounded=0;html=1;jettySize=auto;orthogonalLoop=1;fontSize=11;endArrow=block;endFill=0;endSize=8;strokeWidth=1;shadow=0;labelBackgroundColor=none;edgeStyle=orthogonalEdgeStyle;entryX=0.5;entryY=0;entryDx=0;entryDy=0;exitX=1;exitY=0.5;exitDx=0;exitDy=0;" parent="WIyWlLk6GJQsqaUBKTNV-1" source="WIyWlLk6GJQsqaUBKTNV-3" target="WIyWlLk6GJQsqaUBKTNV-7" edge="1">
                    <mxGeometry relative="1" as="geometry">
                        <mxPoint x="200" y="140" as="targetPoint"/>
                    </mxGeometry>
                </mxCell>
                <mxCell id="WIyWlLk6GJQsqaUBKTNV-3" value="SOH_Service.OnStart" style="rounded=1;whiteSpace=wrap;html=1;fontSize=12;glass=0;strokeWidth=1;shadow=0;" parent="WIyWlLk6GJQsqaUBKTNV-1" vertex="1">
                    <mxGeometry x="40" y="80" width="120" height="40" as="geometry"/>
                </mxCell>
                <mxCell id="xqEc_s3yYMPP4ghLtsjD-2" style="edgeStyle=orthogonalEdgeStyle;rounded=0;orthogonalLoop=1;jettySize=auto;html=1;exitX=0.5;exitY=1;exitDx=0;exitDy=0;entryX=0.5;entryY=0;entryDx=0;entryDy=0;" parent="WIyWlLk6GJQsqaUBKTNV-1" source="WIyWlLk6GJQsqaUBKTNV-7" target="xqEc_s3yYMPP4ghLtsjD-0" edge="1">
                    <mxGeometry relative="1" as="geometry"/>
                </mxCell>
                <mxCell id="WIyWlLk6GJQsqaUBKTNV-7" value="Get Application Settings" style="rounded=1;whiteSpace=wrap;html=1;fontSize=12;glass=0;strokeWidth=1;shadow=0;" parent="WIyWlLk6GJQsqaUBKTNV-1" vertex="1">
                    <mxGeometry x="200" y="120" width="120" height="40" as="geometry"/>
                </mxCell>
                <mxCell id="xqEc_s3yYMPP4ghLtsjD-0" value="Set and Enable Service Timer and Staging timer" style="rounded=1;whiteSpace=wrap;html=1;fontSize=12;glass=0;strokeWidth=1;shadow=0;" parent="WIyWlLk6GJQsqaUBKTNV-1" vertex="1">
                    <mxGeometry x="200" y="180" width="120" height="50" as="geometry"/>
                </mxCell>
                <mxCell id="xqEc_s3yYMPP4ghLtsjD-8" style="edgeStyle=orthogonalEdgeStyle;rounded=0;orthogonalLoop=1;jettySize=auto;html=1;exitX=0.5;exitY=1;exitDx=0;exitDy=0;entryX=0.5;entryY=0;entryDx=0;entryDy=0;entryPerimeter=0;" parent="WIyWlLk6GJQsqaUBKTNV-1" source="xqEc_s3yYMPP4ghLtsjD-3" target="xqEc_s3yYMPP4ghLtsjD-4" edge="1">
                    <mxGeometry relative="1" as="geometry"/>
                </mxCell>
                <mxCell id="xqEc_s3yYMPP4ghLtsjD-3" value="Service_Timer.Elapsed" style="rounded=1;whiteSpace=wrap;html=1;fontSize=12;glass=0;strokeWidth=1;shadow=0;" parent="WIyWlLk6GJQsqaUBKTNV-1" vertex="1">
                    <mxGeometry x="40" y="240" width="140" height="40" as="geometry"/>
                </mxCell>
                <mxCell id="xqEc_s3yYMPP4ghLtsjD-15" style="edgeStyle=orthogonalEdgeStyle;rounded=0;orthogonalLoop=1;jettySize=auto;html=1;exitX=1;exitY=0.5;exitDx=0;exitDy=0;exitPerimeter=0;entryX=0;entryY=0.5;entryDx=0;entryDy=0;" parent="WIyWlLk6GJQsqaUBKTNV-1" source="xqEc_s3yYMPP4ghLtsjD-4" target="xqEc_s3yYMPP4ghLtsjD-11" edge="1">
                    <mxGeometry relative="1" as="geometry"/>
                </mxCell>
                <mxCell id="xqEc_s3yYMPP4ghLtsjD-27" value="NO" style="edgeLabel;html=1;align=center;verticalAlign=middle;resizable=0;points=[];" parent="xqEc_s3yYMPP4ghLtsjD-15" vertex="1" connectable="0">
                    <mxGeometry x="-0.2714" y="1" relative="1" as="geometry">
                        <mxPoint y="-9" as="offset"/>
                    </mxGeometry>
                </mxCell>
                <mxCell id="xqEc_s3yYMPP4ghLtsjD-4" value="Is Syspro in Blackout" style="strokeWidth=2;html=1;shape=mxgraph.flowchart.decision;whiteSpace=wrap;" parent="WIyWlLk6GJQsqaUBKTNV-1" vertex="1">
                    <mxGeometry x="50" y="310" width="100" height="100" as="geometry"/>
                </mxCell>
                <mxCell id="xqEc_s3yYMPP4ghLtsjD-18" style="edgeStyle=orthogonalEdgeStyle;rounded=0;orthogonalLoop=1;jettySize=auto;html=1;exitX=0.5;exitY=1;exitDx=0;exitDy=0;entryX=0;entryY=0.5;entryDx=0;entryDy=0;entryPerimeter=0;" parent="WIyWlLk6GJQsqaUBKTNV-1" source="xqEc_s3yYMPP4ghLtsjD-5" target="xqEc_s3yYMPP4ghLtsjD-13" edge="1">
                    <mxGeometry relative="1" as="geometry"/>
                </mxCell>
                <mxCell id="chhHq7CEi5ajM5ahhvP2-1" style="edgeStyle=orthogonalEdgeStyle;rounded=0;orthogonalLoop=1;jettySize=auto;html=1;entryX=0;entryY=0.5;entryDx=0;entryDy=0;entryPerimeter=0;" parent="WIyWlLk6GJQsqaUBKTNV-1" source="xqEc_s3yYMPP4ghLtsjD-5" target="xqEc_s3yYMPP4ghLtsjD-14" edge="1">
                    <mxGeometry relative="1" as="geometry"/>
                </mxCell>
                <mxCell id="xqEc_s3yYMPP4ghLtsjD-5" value="Get statged orders to process" style="rounded=1;whiteSpace=wrap;html=1;fontSize=12;glass=0;strokeWidth=1;shadow=0;" parent="WIyWlLk6GJQsqaUBKTNV-1" vertex="1">
                    <mxGeometry x="420" y="340" width="120" height="40" as="geometry"/>
                </mxCell>
                <mxCell id="xqEc_s3yYMPP4ghLtsjD-17" style="edgeStyle=orthogonalEdgeStyle;rounded=0;orthogonalLoop=1;jettySize=auto;html=1;exitX=1;exitY=0.5;exitDx=0;exitDy=0;exitPerimeter=0;entryX=0;entryY=0.5;entryDx=0;entryDy=0;" parent="WIyWlLk6GJQsqaUBKTNV-1" source="xqEc_s3yYMPP4ghLtsjD-7" target="xqEc_s3yYMPP4ghLtsjD-5" edge="1">
                    <mxGeometry relative="1" as="geometry"/>
                </mxCell>
                <mxCell id="xqEc_s3yYMPP4ghLtsjD-7" value="Begin loop" style="strokeWidth=2;html=1;shape=mxgraph.flowchart.start_1;whiteSpace=wrap;" parent="WIyWlLk6GJQsqaUBKTNV-1" vertex="1">
                    <mxGeometry x="313" y="340" width="80" height="40" as="geometry"/>
                </mxCell>
                <mxCell id="xqEc_s3yYMPP4ghLtsjD-16" style="edgeStyle=orthogonalEdgeStyle;rounded=0;orthogonalLoop=1;jettySize=auto;html=1;exitX=1;exitY=0.5;exitDx=0;exitDy=0;entryX=0;entryY=0.5;entryDx=0;entryDy=0;entryPerimeter=0;" parent="WIyWlLk6GJQsqaUBKTNV-1" source="xqEc_s3yYMPP4ghLtsjD-11" target="xqEc_s3yYMPP4ghLtsjD-7" edge="1">
                    <mxGeometry relative="1" as="geometry"/>
                </mxCell>
                <mxCell id="xqEc_s3yYMPP4ghLtsjD-11" value="Get statged orders to process" style="rounded=1;whiteSpace=wrap;html=1;fontSize=12;glass=0;strokeWidth=1;shadow=0;" parent="WIyWlLk6GJQsqaUBKTNV-1" vertex="1">
                    <mxGeometry x="167" y="340" width="120" height="40" as="geometry"/>
                </mxCell>
                <mxCell id="xqEc_s3yYMPP4ghLtsjD-24" style="edgeStyle=orthogonalEdgeStyle;rounded=0;orthogonalLoop=1;jettySize=auto;html=1;exitX=1;exitY=0.5;exitDx=0;exitDy=0;exitPerimeter=0;entryX=0;entryY=0.5;entryDx=0;entryDy=0;" parent="WIyWlLk6GJQsqaUBKTNV-1" source="xqEc_s3yYMPP4ghLtsjD-12" target="xqEc_s3yYMPP4ghLtsjD-22" edge="1">
                    <mxGeometry relative="1" as="geometry"/>
                </mxCell>
                <mxCell id="xqEc_s3yYMPP4ghLtsjD-12" value="Type : Backorder Process" style="strokeWidth=2;html=1;shape=mxgraph.flowchart.start_1;whiteSpace=wrap;" parent="WIyWlLk6GJQsqaUBKTNV-1" vertex="1">
                    <mxGeometry x="540" y="480" width="130" height="40" as="geometry"/>
                </mxCell>
                <mxCell id="xqEc_s3yYMPP4ghLtsjD-25" style="edgeStyle=orthogonalEdgeStyle;rounded=0;orthogonalLoop=1;jettySize=auto;html=1;exitX=1;exitY=0.5;exitDx=0;exitDy=0;exitPerimeter=0;entryX=0;entryY=0.5;entryDx=0;entryDy=0;" parent="WIyWlLk6GJQsqaUBKTNV-1" source="xqEc_s3yYMPP4ghLtsjD-13" target="xqEc_s3yYMPP4ghLtsjD-21" edge="1">
                    <mxGeometry relative="1" as="geometry"/>
                </mxCell>
                <mxCell id="xqEc_s3yYMPP4ghLtsjD-13" value="Type : Dispatch Process" style="strokeWidth=2;html=1;shape=mxgraph.flowchart.start_1;whiteSpace=wrap;" parent="WIyWlLk6GJQsqaUBKTNV-1" vertex="1">
                    <mxGeometry x="540" y="400" width="130" height="40" as="geometry"/>
                </mxCell>
                <mxCell id="xqEc_s3yYMPP4ghLtsjD-26" style="edgeStyle=orthogonalEdgeStyle;rounded=0;orthogonalLoop=1;jettySize=auto;html=1;exitX=1;exitY=0.5;exitDx=0;exitDy=0;exitPerimeter=0;entryX=0;entryY=0.5;entryDx=0;entryDy=0;" parent="WIyWlLk6GJQsqaUBKTNV-1" source="xqEc_s3yYMPP4ghLtsjD-14" target="xqEc_s3yYMPP4ghLtsjD-23" edge="1">
                    <mxGeometry relative="1" as="geometry"/>
                </mxCell>
                <mxCell id="xqEc_s3yYMPP4ghLtsjD-19" style="edgeStyle=orthogonalEdgeStyle;rounded=0;orthogonalLoop=1;jettySize=auto;html=1;entryX=0;entryY=0.5;entryDx=0;entryDy=0;entryPerimeter=0;exitX=0.5;exitY=1;exitDx=0;exitDy=0;" parent="WIyWlLk6GJQsqaUBKTNV-1" source="xqEc_s3yYMPP4ghLtsjD-5" target="xqEc_s3yYMPP4ghLtsjD-12" edge="1">
                    <mxGeometry relative="1" as="geometry">
                        <mxPoint x="540" y="420" as="sourcePoint"/>
                        <mxPoint x="630" y="510" as="targetPoint"/>
                    </mxGeometry>
                </mxCell>
                <mxCell id="xqEc_s3yYMPP4ghLtsjD-20" style="edgeStyle=orthogonalEdgeStyle;rounded=0;orthogonalLoop=1;jettySize=auto;html=1;entryX=0;entryY=0.5;entryDx=0;entryDy=0;entryPerimeter=0;startArrow=none;" parent="WIyWlLk6GJQsqaUBKTNV-1" source="xqEc_s3yYMPP4ghLtsjD-14" edge="1">
                    <mxGeometry relative="1" as="geometry">
                        <mxPoint x="540" y="500" as="sourcePoint"/>
                        <mxPoint x="650" y="580" as="targetPoint"/>
                        <Array as="points">
                            <mxPoint x="540" y="580"/>
                        </Array>
                    </mxGeometry>
                </mxCell>
                <mxCell id="xqEc_s3yYMPP4ghLtsjD-29" style="edgeStyle=orthogonalEdgeStyle;rounded=0;orthogonalLoop=1;jettySize=auto;html=1;exitX=1;exitY=0.5;exitDx=0;exitDy=0;entryX=0;entryY=0.5;entryDx=0;entryDy=0;entryPerimeter=0;" parent="WIyWlLk6GJQsqaUBKTNV-1" source="xqEc_s3yYMPP4ghLtsjD-21" target="xqEc_s3yYMPP4ghLtsjD-28" edge="1">
                    <mxGeometry relative="1" as="geometry"/>
                </mxCell>
                <mxCell id="xqEc_s3yYMPP4ghLtsjD-21" value="Process Order through ProcessDipstach" style="rounded=1;whiteSpace=wrap;html=1;fontSize=12;glass=0;strokeWidth=1;shadow=0;" parent="WIyWlLk6GJQsqaUBKTNV-1" vertex="1">
                    <mxGeometry x="690" y="390" width="123" height="60" as="geometry"/>
                </mxCell>
                <mxCell id="xqEc_s3yYMPP4ghLtsjD-30" style="edgeStyle=orthogonalEdgeStyle;rounded=0;orthogonalLoop=1;jettySize=auto;html=1;exitX=1;exitY=0.5;exitDx=0;exitDy=0;entryX=0;entryY=0.5;entryDx=0;entryDy=0;entryPerimeter=0;" parent="WIyWlLk6GJQsqaUBKTNV-1" source="xqEc_s3yYMPP4ghLtsjD-22" target="xqEc_s3yYMPP4ghLtsjD-28" edge="1">
                    <mxGeometry relative="1" as="geometry">
                        <mxPoint x="990" y="440" as="targetPoint"/>
                    </mxGeometry>
                </mxCell>
                <mxCell id="xqEc_s3yYMPP4ghLtsjD-22" value="Process Order through ProcessBackOrder" style="rounded=1;whiteSpace=wrap;html=1;fontSize=12;glass=0;strokeWidth=1;shadow=0;" parent="WIyWlLk6GJQsqaUBKTNV-1" vertex="1">
                    <mxGeometry x="690" y="470" width="123" height="60" as="geometry"/>
                </mxCell>
                <mxCell id="xqEc_s3yYMPP4ghLtsjD-31" style="edgeStyle=orthogonalEdgeStyle;rounded=0;orthogonalLoop=1;jettySize=auto;html=1;exitX=1;exitY=0.5;exitDx=0;exitDy=0;entryX=0;entryY=0.5;entryDx=0;entryDy=0;entryPerimeter=0;" parent="WIyWlLk6GJQsqaUBKTNV-1" source="xqEc_s3yYMPP4ghLtsjD-23" target="xqEc_s3yYMPP4ghLtsjD-28" edge="1">
                    <mxGeometry relative="1" as="geometry">
                        <mxPoint x="980" y="520" as="targetPoint"/>
                    </mxGeometry>
                </mxCell>
                <mxCell id="xqEc_s3yYMPP4ghLtsjD-23" value="Error Email - Can not process type on staged record" style="rounded=1;whiteSpace=wrap;html=1;fontSize=12;glass=0;strokeWidth=1;shadow=0;" parent="WIyWlLk6GJQsqaUBKTNV-1" vertex="1">
                    <mxGeometry x="690" y="550" width="123" height="60" as="geometry"/>
                </mxCell>
                <mxCell id="xqEc_s3yYMPP4ghLtsjD-34" style="edgeStyle=orthogonalEdgeStyle;rounded=0;orthogonalLoop=1;jettySize=auto;html=1;entryX=0;entryY=0.5;entryDx=0;entryDy=0;exitX=0.5;exitY=1;exitDx=0;exitDy=0;exitPerimeter=0;" parent="WIyWlLk6GJQsqaUBKTNV-1" source="xqEc_s3yYMPP4ghLtsjD-28" target="xqEc_s3yYMPP4ghLtsjD-33" edge="1">
                    <mxGeometry relative="1" as="geometry"/>
                </mxCell>
                <mxCell id="xqEc_s3yYMPP4ghLtsjD-35" value="NO" style="edgeLabel;html=1;align=center;verticalAlign=middle;resizable=0;points=[];" parent="xqEc_s3yYMPP4ghLtsjD-34" vertex="1" connectable="0">
                    <mxGeometry x="-0.027" relative="1" as="geometry">
                        <mxPoint x="12" y="-10" as="offset"/>
                    </mxGeometry>
                </mxCell>
                <mxCell id="xqEc_s3yYMPP4ghLtsjD-36" style="edgeStyle=orthogonalEdgeStyle;rounded=0;orthogonalLoop=1;jettySize=auto;html=1;entryX=0;entryY=0.5;entryDx=0;entryDy=0;" parent="WIyWlLk6GJQsqaUBKTNV-1" source="xqEc_s3yYMPP4ghLtsjD-28" target="xqEc_s3yYMPP4ghLtsjD-32" edge="1">
                    <mxGeometry relative="1" as="geometry"/>
                </mxCell>
                <mxCell id="xqEc_s3yYMPP4ghLtsjD-37" value="Yes" style="edgeLabel;html=1;align=center;verticalAlign=middle;resizable=0;points=[];" parent="xqEc_s3yYMPP4ghLtsjD-36" vertex="1" connectable="0">
                    <mxGeometry x="-0.2714" y="1" relative="1" as="geometry">
                        <mxPoint y="-9" as="offset"/>
                    </mxGeometry>
                </mxCell>
                <mxCell id="xqEc_s3yYMPP4ghLtsjD-28" value="Successful Process" style="strokeWidth=2;html=1;shape=mxgraph.flowchart.decision;whiteSpace=wrap;" parent="WIyWlLk6GJQsqaUBKTNV-1" vertex="1">
                    <mxGeometry x="860" y="370" width="100" height="100" as="geometry"/>
                </mxCell>
                <mxCell id="xqEc_s3yYMPP4ghLtsjD-38" style="edgeStyle=orthogonalEdgeStyle;rounded=0;orthogonalLoop=1;jettySize=auto;html=1;entryX=0.5;entryY=0;entryDx=0;entryDy=0;" parent="WIyWlLk6GJQsqaUBKTNV-1" source="xqEc_s3yYMPP4ghLtsjD-32" target="xqEc_s3yYMPP4ghLtsjD-5" edge="1">
                    <mxGeometry relative="1" as="geometry">
                        <mxPoint x="1320" y="320" as="targetPoint"/>
                        <Array as="points">
                            <mxPoint x="1140" y="420"/>
                            <mxPoint x="1140" y="320"/>
                            <mxPoint x="480" y="320"/>
                        </Array>
                    </mxGeometry>
                </mxCell>
                <mxCell id="xqEc_s3yYMPP4ghLtsjD-32" value="Update Staged Record as Processed" style="rounded=1;whiteSpace=wrap;html=1;fontSize=12;glass=0;strokeWidth=1;shadow=0;" parent="WIyWlLk6GJQsqaUBKTNV-1" vertex="1">
                    <mxGeometry x="1000" y="390" width="123" height="60" as="geometry"/>
                </mxCell>
                <mxCell id="xqEc_s3yYMPP4ghLtsjD-39" style="edgeStyle=orthogonalEdgeStyle;rounded=0;orthogonalLoop=1;jettySize=auto;html=1;exitX=1;exitY=0.5;exitDx=0;exitDy=0;entryX=0.5;entryY=0;entryDx=0;entryDy=0;" parent="WIyWlLk6GJQsqaUBKTNV-1" source="xqEc_s3yYMPP4ghLtsjD-33" target="xqEc_s3yYMPP4ghLtsjD-5" edge="1">
                    <mxGeometry relative="1" as="geometry">
                        <Array as="points">
                            <mxPoint x="1140" y="520"/>
                            <mxPoint x="1140" y="320"/>
                            <mxPoint x="480" y="320"/>
                        </Array>
                    </mxGeometry>
                </mxCell>
                <mxCell id="xqEc_s3yYMPP4ghLtsjD-33" value="Update Staged Record as Failure" style="rounded=1;whiteSpace=wrap;html=1;fontSize=12;glass=0;strokeWidth=1;shadow=0;" parent="WIyWlLk6GJQsqaUBKTNV-1" vertex="1">
                    <mxGeometry x="1000" y="490" width="123" height="60" as="geometry"/>
                </mxCell>
                <mxCell id="xqEc_s3yYMPP4ghLtsjD-14" value="Type : Unsupported" style="strokeWidth=2;html=1;shape=mxgraph.flowchart.start_1;whiteSpace=wrap;" parent="WIyWlLk6GJQsqaUBKTNV-1" vertex="1">
                    <mxGeometry x="540" y="560" width="130" height="40" as="geometry"/>
                </mxCell>
                <mxCell id="aFtxAqeXOYWlJFz1CTaN-2" style="edgeStyle=orthogonalEdgeStyle;rounded=0;orthogonalLoop=1;jettySize=auto;html=1;entryX=0;entryY=0.5;entryDx=0;entryDy=0;" parent="WIyWlLk6GJQsqaUBKTNV-1" source="aFtxAqeXOYWlJFz1CTaN-0" target="aFtxAqeXOYWlJFz1CTaN-1" edge="1">
                    <mxGeometry relative="1" as="geometry"/>
                </mxCell>
                <mxCell id="aFtxAqeXOYWlJFz1CTaN-0" value="Staging_Timer.Elapsed" style="rounded=1;whiteSpace=wrap;html=1;fontSize=12;glass=0;strokeWidth=1;shadow=0;" parent="WIyWlLk6GJQsqaUBKTNV-1" vertex="1">
                    <mxGeometry x="50" y="640" width="140" height="40" as="geometry"/>
                </mxCell>
                <mxCell id="aFtxAqeXOYWlJFz1CTaN-1" value="Execute Staging procedure" style="rounded=1;whiteSpace=wrap;html=1;fontSize=12;glass=0;strokeWidth=1;shadow=0;" parent="WIyWlLk6GJQsqaUBKTNV-1" vertex="1">
                    <mxGeometry x="260" y="640" width="120" height="40" as="geometry"/>
                </mxCell>
                <mxCell id="-CCbr-hlrH1PqbdbbXWF-0" value="" style="endArrow=none;dashed=1;html=1;fontSize=20;exitX=1;exitY=1;exitDx=0;exitDy=0;entryX=0;entryY=0;entryDx=0;entryDy=0;" edge="1" parent="WIyWlLk6GJQsqaUBKTNV-1" source="xqEc_s3yYMPP4ghLtsjD-22" target="-CCbr-hlrH1PqbdbbXWF-1">
                    <mxGeometry width="50" height="50" relative="1" as="geometry">
                        <mxPoint x="920" y="630" as="sourcePoint"/>
                        <mxPoint x="840" y="580" as="targetPoint"/>
                    </mxGeometry>
                </mxCell>
                <mxCell id="-CCbr-hlrH1PqbdbbXWF-3" style="edgeStyle=none;html=1;exitX=0.5;exitY=0;exitDx=0;exitDy=0;entryX=0;entryY=0.5;entryDx=0;entryDy=0;fontSize=20;rounded=0;" edge="1" parent="WIyWlLk6GJQsqaUBKTNV-1" source="-CCbr-hlrH1PqbdbbXWF-1" target="xqEc_s3yYMPP4ghLtsjD-33">
                    <mxGeometry relative="1" as="geometry">
                        <Array as="points">
                            <mxPoint x="910" y="520"/>
                        </Array>
                    </mxGeometry>
                </mxCell>
                <mxCell id="-CCbr-hlrH1PqbdbbXWF-1" value="Errors caught from processes will send an error email and result with a failure for the record" style="rounded=1;whiteSpace=wrap;html=1;fontSize=12;glass=0;strokeWidth=1;shadow=0;" vertex="1" parent="WIyWlLk6GJQsqaUBKTNV-1">
                    <mxGeometry x="848.5" y="580" width="123" height="80" as="geometry"/>
                </mxCell>
                <mxCell id="-CCbr-hlrH1PqbdbbXWF-2" value="" style="endArrow=none;dashed=1;html=1;dashPattern=1 3;strokeWidth=2;fontSize=20;exitX=1;exitY=1;exitDx=0;exitDy=0;entryX=0;entryY=0;entryDx=0;entryDy=0;" edge="1" parent="WIyWlLk6GJQsqaUBKTNV-1" source="xqEc_s3yYMPP4ghLtsjD-21" target="-CCbr-hlrH1PqbdbbXWF-1">
                    <mxGeometry width="50" height="50" relative="1" as="geometry">
                        <mxPoint x="870" y="580" as="sourcePoint"/>
                        <mxPoint x="920" y="530" as="targetPoint"/>
                    </mxGeometry>
                </mxCell>
            </root>
        </mxGraphModel>
    </diagram>
    <diagram id="2x2BCfzVapXNMiDM0nXy" name="ProcessDispatch">
        <mxGraphModel dx="1013" dy="589" grid="1" gridSize="10" guides="1" tooltips="1" connect="1" arrows="1" fold="1" page="1" pageScale="1" pageWidth="850" pageHeight="1100" math="0" shadow="0">
            <root>
                <mxCell id="0"/>
                <mxCell id="1" parent="0"/>
                <mxCell id="5TofgRDB1GG2kNHFe5ea-1" value="Process: Dispatch" style="rounded=0;whiteSpace=wrap;html=1;fontFamily=Tahoma;fontStyle=1;fontSize=20;align=left;spacingLeft=15;" parent="1" vertex="1">
                    <mxGeometry x="10" y="10" width="730" height="60" as="geometry"/>
                </mxCell>
                <mxCell id="5TofgRDB1GG2kNHFe5ea-2" value="" style="rounded=0;whiteSpace=wrap;html=1;fontFamily=Tahoma;fontSize=20;" parent="1" vertex="1">
                    <mxGeometry x="10" y="70" width="730" height="450" as="geometry"/>
                </mxCell>
                <mxCell id="x7Qe5mtiMR44-EBbsWJn-4" style="edgeStyle=orthogonalEdgeStyle;rounded=0;orthogonalLoop=1;jettySize=auto;html=1;exitX=1;exitY=0.5;exitDx=0;exitDy=0;entryX=0;entryY=0.5;entryDx=0;entryDy=0;" parent="1" source="x7Qe5mtiMR44-EBbsWJn-2" target="x7Qe5mtiMR44-EBbsWJn-3" edge="1">
                    <mxGeometry relative="1" as="geometry"/>
                </mxCell>
                <mxCell id="x7Qe5mtiMR44-EBbsWJn-2" value="ProcessDisptach : Start" style="rounded=1;whiteSpace=wrap;html=1;" parent="1" vertex="1">
                    <mxGeometry x="20" y="130" width="120" height="60" as="geometry"/>
                </mxCell>
                <mxCell id="x7Qe5mtiMR44-EBbsWJn-17" style="edgeStyle=orthogonalEdgeStyle;rounded=0;orthogonalLoop=1;jettySize=auto;html=1;entryX=0;entryY=0.5;entryDx=0;entryDy=0;" parent="1" source="x7Qe5mtiMR44-EBbsWJn-3" target="x7Qe5mtiMR44-EBbsWJn-6" edge="1">
                    <mxGeometry relative="1" as="geometry"/>
                </mxCell>
                <mxCell id="x7Qe5mtiMR44-EBbsWJn-3" value="Load Charges for Staged Order" style="rounded=1;whiteSpace=wrap;html=1;" parent="1" vertex="1">
                    <mxGeometry x="180" y="130" width="120" height="60" as="geometry"/>
                </mxCell>
                <mxCell id="x7Qe5mtiMR44-EBbsWJn-9" style="edgeStyle=orthogonalEdgeStyle;rounded=0;orthogonalLoop=1;jettySize=auto;html=1;entryX=0;entryY=0.5;entryDx=0;entryDy=0;exitX=0.5;exitY=1;exitDx=0;exitDy=0;" parent="1" source="x7Qe5mtiMR44-EBbsWJn-6" target="x7Qe5mtiMR44-EBbsWJn-7" edge="1">
                    <mxGeometry relative="1" as="geometry"/>
                </mxCell>
                <mxCell id="x7Qe5mtiMR44-EBbsWJn-10" style="edgeStyle=orthogonalEdgeStyle;rounded=0;orthogonalLoop=1;jettySize=auto;html=1;exitX=0.5;exitY=1;exitDx=0;exitDy=0;entryX=0;entryY=0.5;entryDx=0;entryDy=0;" parent="1" source="x7Qe5mtiMR44-EBbsWJn-6" target="x7Qe5mtiMR44-EBbsWJn-8" edge="1">
                    <mxGeometry relative="1" as="geometry"/>
                </mxCell>
                <mxCell id="x7Qe5mtiMR44-EBbsWJn-6" value="Process each charge returned" style="ellipse;whiteSpace=wrap;html=1;" parent="1" vertex="1">
                    <mxGeometry x="340" y="120" width="80" height="80" as="geometry"/>
                </mxCell>
                <mxCell id="x7Qe5mtiMR44-EBbsWJn-14" style="edgeStyle=orthogonalEdgeStyle;rounded=0;orthogonalLoop=1;jettySize=auto;html=1;" parent="1" source="x7Qe5mtiMR44-EBbsWJn-7" target="x7Qe5mtiMR44-EBbsWJn-11" edge="1">
                    <mxGeometry relative="1" as="geometry"/>
                </mxCell>
                <mxCell id="x7Qe5mtiMR44-EBbsWJn-7" value="Type : Dispatch" style="rounded=1;whiteSpace=wrap;html=1;" parent="1" vertex="1">
                    <mxGeometry x="425" y="220" width="120" height="60" as="geometry"/>
                </mxCell>
                <mxCell id="x7Qe5mtiMR44-EBbsWJn-13" style="edgeStyle=orthogonalEdgeStyle;rounded=0;orthogonalLoop=1;jettySize=auto;html=1;entryX=0;entryY=0.5;entryDx=0;entryDy=0;" parent="1" source="x7Qe5mtiMR44-EBbsWJn-8" target="x7Qe5mtiMR44-EBbsWJn-12" edge="1">
                    <mxGeometry relative="1" as="geometry"/>
                </mxCell>
                <mxCell id="x7Qe5mtiMR44-EBbsWJn-8" value="Type : SORTOI" style="rounded=1;whiteSpace=wrap;html=1;" parent="1" vertex="1">
                    <mxGeometry x="425" y="320" width="120" height="60" as="geometry"/>
                </mxCell>
                <mxCell id="x7Qe5mtiMR44-EBbsWJn-16" style="edgeStyle=orthogonalEdgeStyle;rounded=0;orthogonalLoop=1;jettySize=auto;html=1;exitX=1;exitY=0.5;exitDx=0;exitDy=0;" parent="1" source="x7Qe5mtiMR44-EBbsWJn-11" edge="1">
                    <mxGeometry relative="1" as="geometry">
                        <mxPoint x="380" y="120" as="targetPoint"/>
                        <Array as="points">
                            <mxPoint x="720" y="250"/>
                            <mxPoint x="720" y="100"/>
                            <mxPoint x="380" y="100"/>
                        </Array>
                    </mxGeometry>
                </mxCell>
                <mxCell id="x7Qe5mtiMR44-EBbsWJn-11" value="Insert Charges into Disptach Note" style="rounded=1;whiteSpace=wrap;html=1;" parent="1" vertex="1">
                    <mxGeometry x="580" y="220" width="120" height="60" as="geometry"/>
                </mxCell>
                <mxCell id="x7Qe5mtiMR44-EBbsWJn-15" style="edgeStyle=orthogonalEdgeStyle;rounded=0;orthogonalLoop=1;jettySize=auto;html=1;exitX=1;exitY=0.5;exitDx=0;exitDy=0;entryX=0.5;entryY=0;entryDx=0;entryDy=0;" parent="1" source="x7Qe5mtiMR44-EBbsWJn-12" target="x7Qe5mtiMR44-EBbsWJn-6" edge="1">
                    <mxGeometry relative="1" as="geometry"/>
                </mxCell>
                <mxCell id="x7Qe5mtiMR44-EBbsWJn-12" value="Using Syspro Business Object SORTOI to modify Sales Order" style="rounded=1;whiteSpace=wrap;html=1;" parent="1" vertex="1">
                    <mxGeometry x="580" y="320" width="120" height="60" as="geometry"/>
                </mxCell>
                <mxCell id="RGJXHPvMpb3Tlm7fvEp5-1" value="" style="verticalLabelPosition=bottom;verticalAlign=top;html=1;shape=mxgraph.basic.8_point_star" vertex="1" parent="1">
                    <mxGeometry x="70" y="410" width="150" height="80" as="geometry"/>
                </mxCell>
                <mxCell id="RGJXHPvMpb3Tlm7fvEp5-6" style="edgeStyle=none;html=1;exitX=1;exitY=0.5;exitDx=0;exitDy=0;entryX=0;entryY=0.5;entryDx=0;entryDy=0;" edge="1" parent="1" source="RGJXHPvMpb3Tlm7fvEp5-3" target="RGJXHPvMpb3Tlm7fvEp5-5">
                    <mxGeometry relative="1" as="geometry"/>
                </mxCell>
                <mxCell id="RGJXHPvMpb3Tlm7fvEp5-3" value="&lt;font style=&quot;font-size: 20px;&quot;&gt;Error&lt;/font&gt;" style="text;strokeColor=none;fillColor=none;html=1;fontSize=24;fontStyle=1;verticalAlign=middle;align=center;" vertex="1" parent="1">
                    <mxGeometry x="95" y="430" width="100" height="40" as="geometry"/>
                </mxCell>
                <mxCell id="RGJXHPvMpb3Tlm7fvEp5-8" value="" style="edgeStyle=none;html=1;fontSize=20;" edge="1" parent="1" source="RGJXHPvMpb3Tlm7fvEp5-5" target="RGJXHPvMpb3Tlm7fvEp5-7">
                    <mxGeometry relative="1" as="geometry"/>
                </mxCell>
                <mxCell id="RGJXHPvMpb3Tlm7fvEp5-5" value="Log is created to capture what happend" style="rounded=0;whiteSpace=wrap;html=1;" vertex="1" parent="1">
                    <mxGeometry x="270" y="420" width="120" height="60" as="geometry"/>
                </mxCell>
                <mxCell id="RGJXHPvMpb3Tlm7fvEp5-7" value="Process bubbles up the error to allow the main routine to handle" style="rounded=0;whiteSpace=wrap;html=1;" vertex="1" parent="1">
                    <mxGeometry x="420" y="420" width="120" height="60" as="geometry"/>
                </mxCell>
            </root>
        </mxGraphModel>
    </diagram>
    <diagram id="7MGzPh20mA5tW1JW_m0X" name="ProcessBackorder">
        <mxGraphModel dx="1431" dy="832" grid="1" gridSize="10" guides="1" tooltips="1" connect="1" arrows="1" fold="1" page="1" pageScale="1" pageWidth="850" pageHeight="1100" math="0" shadow="0">
            <root>
                <mxCell id="0"/>
                <mxCell id="1" parent="0"/>
                <mxCell id="ZiAy1e0dSlZ2VoHW81hB-3" value="Process: Backorder" style="rounded=0;whiteSpace=wrap;html=1;fontFamily=Tahoma;fontStyle=1;fontSize=20;align=left;spacingLeft=15;" parent="1" vertex="1">
                    <mxGeometry x="10" y="10" width="720" height="60" as="geometry"/>
                </mxCell>
                <mxCell id="ZiAy1e0dSlZ2VoHW81hB-4" value="" style="rounded=0;whiteSpace=wrap;html=1;fontFamily=Tahoma;fontSize=20;" parent="1" vertex="1">
                    <mxGeometry x="10" y="70" width="720" height="890" as="geometry"/>
                </mxCell>
                <mxCell id="2CBz6zbsxT3Epwuud5Pw-2" style="edgeStyle=orthogonalEdgeStyle;rounded=0;orthogonalLoop=1;jettySize=auto;html=1;fontFamily=Tahoma;fontSize=20;" parent="1" source="XFCQv4Opj6lOi64WVAC_-1" target="A0O8pm8QP7zq2_cl9Udr-1" edge="1">
                    <mxGeometry relative="1" as="geometry">
                        <mxPoint x="187.5" y="127.5" as="targetPoint"/>
                    </mxGeometry>
                </mxCell>
                <mxCell id="XFCQv4Opj6lOi64WVAC_-1" value="ProcessBackorder : Start" style="rounded=1;whiteSpace=wrap;html=1;" parent="1" vertex="1">
                    <mxGeometry x="60" y="100" width="120" height="60" as="geometry"/>
                </mxCell>
                <mxCell id="kZO-ehisHQtap1QmTL4f-3" value="Return to main routine loop with a success" style="rounded=1;whiteSpace=wrap;html=1;" parent="1" vertex="1">
                    <mxGeometry x="45" y="840" width="170" height="60" as="geometry"/>
                </mxCell>
                <mxCell id="A0O8pm8QP7zq2_cl9Udr-4" style="edgeStyle=orthogonalEdgeStyle;rounded=0;orthogonalLoop=1;jettySize=auto;html=1;fontFamily=Helvetica;fontSize=12;exitX=0.5;exitY=1;exitDx=0;exitDy=0;" parent="1" source="A0O8pm8QP7zq2_cl9Udr-1" target="A0O8pm8QP7zq2_cl9Udr-3" edge="1">
                    <mxGeometry relative="1" as="geometry">
                        <Array as="points"/>
                    </mxGeometry>
                </mxCell>
                <mxCell id="A0O8pm8QP7zq2_cl9Udr-1" value="Compile each item into a SCT or PO to transmit to Syspro" style="rounded=1;whiteSpace=wrap;html=1;" parent="1" vertex="1">
                    <mxGeometry x="32.5" y="200" width="175" height="60" as="geometry"/>
                </mxCell>
                <mxCell id="TJNBw-mlqLxm_KWSOWQ7-6" style="edgeStyle=orthogonalEdgeStyle;rounded=0;orthogonalLoop=1;jettySize=auto;html=1;entryX=0;entryY=0.5;entryDx=0;entryDy=0;" parent="1" source="A0O8pm8QP7zq2_cl9Udr-3" target="TJNBw-mlqLxm_KWSOWQ7-1" edge="1">
                    <mxGeometry relative="1" as="geometry"/>
                </mxCell>
                <mxCell id="A0O8pm8QP7zq2_cl9Udr-3" value="For Each SCT or PO" style="ellipse;whiteSpace=wrap;html=1;fontFamily=Helvetica;fontSize=12;" parent="1" vertex="1">
                    <mxGeometry x="60" y="320" width="120" height="50" as="geometry"/>
                </mxCell>
                <mxCell id="TJNBw-mlqLxm_KWSOWQ7-12" style="edgeStyle=orthogonalEdgeStyle;rounded=0;orthogonalLoop=1;jettySize=auto;html=1;entryX=0.5;entryY=0;entryDx=0;entryDy=0;" parent="1" source="A0O8pm8QP7zq2_cl9Udr-9" target="TJNBw-mlqLxm_KWSOWQ7-11" edge="1">
                    <mxGeometry relative="1" as="geometry"/>
                </mxCell>
                <mxCell id="A0O8pm8QP7zq2_cl9Udr-9" value="Update custom fields on SCT/PO with COMSFM" style="rounded=1;whiteSpace=wrap;html=1;" parent="1" vertex="1">
                    <mxGeometry x="507.5" y="430" width="160" height="60" as="geometry"/>
                </mxCell>
                <mxCell id="TJNBw-mlqLxm_KWSOWQ7-14" style="edgeStyle=orthogonalEdgeStyle;rounded=0;orthogonalLoop=1;jettySize=auto;html=1;entryX=1;entryY=0.5;entryDx=0;entryDy=0;" parent="1" source="A0O8pm8QP7zq2_cl9Udr-11" target="A0O8pm8QP7zq2_cl9Udr-23" edge="1">
                    <mxGeometry relative="1" as="geometry"/>
                </mxCell>
                <mxCell id="A0O8pm8QP7zq2_cl9Udr-11" value="Create SCT/PO acknowledgement and attach to email to manager" style="rounded=1;whiteSpace=wrap;html=1;" parent="1" vertex="1">
                    <mxGeometry x="507.5" y="640" width="160" height="60" as="geometry"/>
                </mxCell>
                <mxCell id="TJNBw-mlqLxm_KWSOWQ7-17" style="edgeStyle=orthogonalEdgeStyle;rounded=0;orthogonalLoop=1;jettySize=auto;html=1;" parent="1" source="A0O8pm8QP7zq2_cl9Udr-23" target="TJNBw-mlqLxm_KWSOWQ7-15" edge="1">
                    <mxGeometry relative="1" as="geometry"/>
                </mxCell>
                <mxCell id="A0O8pm8QP7zq2_cl9Udr-23" value="Loop Complete" style="rhombus;whiteSpace=wrap;html=1;fontFamily=Helvetica;fontSize=12;" parent="1" vertex="1">
                    <mxGeometry x="90" y="630" width="80" height="80" as="geometry"/>
                </mxCell>
                <mxCell id="TJNBw-mlqLxm_KWSOWQ7-3" style="edgeStyle=orthogonalEdgeStyle;rounded=0;orthogonalLoop=1;jettySize=auto;html=1;entryX=0.5;entryY=0;entryDx=0;entryDy=0;" parent="1" source="TJNBw-mlqLxm_KWSOWQ7-1" target="TJNBw-mlqLxm_KWSOWQ7-2" edge="1">
                    <mxGeometry relative="1" as="geometry"/>
                </mxCell>
                <mxCell id="TJNBw-mlqLxm_KWSOWQ7-4" value="Validation Issues" style="edgeLabel;html=1;align=center;verticalAlign=middle;resizable=0;points=[];" parent="TJNBw-mlqLxm_KWSOWQ7-3" vertex="1" connectable="0">
                    <mxGeometry x="-0.4286" y="1" relative="1" as="geometry">
                        <mxPoint as="offset"/>
                    </mxGeometry>
                </mxCell>
                <mxCell id="TJNBw-mlqLxm_KWSOWQ7-8" style="edgeStyle=orthogonalEdgeStyle;rounded=0;orthogonalLoop=1;jettySize=auto;html=1;exitX=1;exitY=0.5;exitDx=0;exitDy=0;entryX=0;entryY=0.5;entryDx=0;entryDy=0;" parent="1" source="TJNBw-mlqLxm_KWSOWQ7-1" target="TJNBw-mlqLxm_KWSOWQ7-7" edge="1">
                    <mxGeometry relative="1" as="geometry"/>
                </mxCell>
                <mxCell id="TJNBw-mlqLxm_KWSOWQ7-9" value="Succesful&lt;br&gt;Validation" style="edgeLabel;html=1;align=center;verticalAlign=middle;resizable=0;points=[];" parent="TJNBw-mlqLxm_KWSOWQ7-8" vertex="1" connectable="0">
                    <mxGeometry x="-0.2211" y="2" relative="1" as="geometry">
                        <mxPoint as="offset"/>
                    </mxGeometry>
                </mxCell>
                <mxCell id="TJNBw-mlqLxm_KWSOWQ7-1" value="Validate PORTOI (PO) / SORTOI(SCT) against Syspro" style="rounded=1;whiteSpace=wrap;html=1;" parent="1" vertex="1">
                    <mxGeometry x="230" y="315" width="175" height="60" as="geometry"/>
                </mxCell>
                <mxCell id="TJNBw-mlqLxm_KWSOWQ7-5" style="edgeStyle=orthogonalEdgeStyle;rounded=0;orthogonalLoop=1;jettySize=auto;html=1;entryX=1;entryY=0.5;entryDx=0;entryDy=0;exitX=0.5;exitY=1;exitDx=0;exitDy=0;" parent="1" source="TJNBw-mlqLxm_KWSOWQ7-2" target="A0O8pm8QP7zq2_cl9Udr-23" edge="1">
                    <mxGeometry relative="1" as="geometry"/>
                </mxCell>
                <mxCell id="TJNBw-mlqLxm_KWSOWQ7-2" value="Compile a list of validation issues for each SCT/PO for the retail order and send the list as an email to the store managers." style="rounded=1;whiteSpace=wrap;html=1;" parent="1" vertex="1">
                    <mxGeometry x="230" y="430" width="175" height="60" as="geometry"/>
                </mxCell>
                <mxCell id="TJNBw-mlqLxm_KWSOWQ7-10" style="edgeStyle=orthogonalEdgeStyle;rounded=0;orthogonalLoop=1;jettySize=auto;html=1;entryX=0.5;entryY=0;entryDx=0;entryDy=0;" parent="1" source="TJNBw-mlqLxm_KWSOWQ7-7" target="A0O8pm8QP7zq2_cl9Udr-9" edge="1">
                    <mxGeometry relative="1" as="geometry"/>
                </mxCell>
                <mxCell id="TJNBw-mlqLxm_KWSOWQ7-7" value="Transmit each object to Syspro" style="rounded=1;whiteSpace=wrap;html=1;" parent="1" vertex="1">
                    <mxGeometry x="500" y="315" width="175" height="60" as="geometry"/>
                </mxCell>
                <mxCell id="TJNBw-mlqLxm_KWSOWQ7-13" style="edgeStyle=orthogonalEdgeStyle;rounded=0;orthogonalLoop=1;jettySize=auto;html=1;entryX=0.5;entryY=0;entryDx=0;entryDy=0;" parent="1" source="TJNBw-mlqLxm_KWSOWQ7-11" target="A0O8pm8QP7zq2_cl9Udr-11" edge="1">
                    <mxGeometry relative="1" as="geometry"/>
                </mxCell>
                <mxCell id="TJNBw-mlqLxm_KWSOWQ7-11" value="Update Original order with SCT/PO information" style="rounded=1;whiteSpace=wrap;html=1;" parent="1" vertex="1">
                    <mxGeometry x="507.5" y="540" width="160" height="60" as="geometry"/>
                </mxCell>
                <mxCell id="TJNBw-mlqLxm_KWSOWQ7-18" style="edgeStyle=orthogonalEdgeStyle;rounded=0;orthogonalLoop=1;jettySize=auto;html=1;entryX=0.5;entryY=0;entryDx=0;entryDy=0;" parent="1" source="TJNBw-mlqLxm_KWSOWQ7-15" target="kZO-ehisHQtap1QmTL4f-3" edge="1">
                    <mxGeometry relative="1" as="geometry"/>
                </mxCell>
                <mxCell id="TJNBw-mlqLxm_KWSOWQ7-15" value="Update stage records with log of what happend true a success or fail" style="rounded=1;whiteSpace=wrap;html=1;" parent="1" vertex="1">
                    <mxGeometry x="45" y="740" width="170" height="60" as="geometry"/>
                </mxCell>
                <mxCell id="gFcQEBkbsp58ij574dLz-1" value="" style="verticalLabelPosition=bottom;verticalAlign=top;html=1;shape=mxgraph.basic.8_point_star" vertex="1" parent="1">
                    <mxGeometry x="335" y="730" width="150" height="80" as="geometry"/>
                </mxCell>
                <mxCell id="gFcQEBkbsp58ij574dLz-2" style="edgeStyle=none;html=1;exitX=0.5;exitY=1;exitDx=0;exitDy=0;entryX=0;entryY=0.5;entryDx=0;entryDy=0;" edge="1" parent="1" source="gFcQEBkbsp58ij574dLz-3" target="gFcQEBkbsp58ij574dLz-5">
                    <mxGeometry relative="1" as="geometry">
                        <Array as="points">
                            <mxPoint x="410" y="830"/>
                            <mxPoint x="330" y="830"/>
                            <mxPoint x="330" y="870"/>
                        </Array>
                    </mxGeometry>
                </mxCell>
                <mxCell id="gFcQEBkbsp58ij574dLz-3" value="&lt;font style=&quot;font-size: 20px;&quot;&gt;Error&lt;/font&gt;" style="text;strokeColor=none;fillColor=none;html=1;fontSize=24;fontStyle=1;verticalAlign=middle;align=center;" vertex="1" parent="1">
                    <mxGeometry x="360" y="750" width="100" height="40" as="geometry"/>
                </mxCell>
                <mxCell id="gFcQEBkbsp58ij574dLz-4" value="" style="edgeStyle=none;html=1;fontSize=20;" edge="1" parent="1" source="gFcQEBkbsp58ij574dLz-5" target="gFcQEBkbsp58ij574dLz-6">
                    <mxGeometry relative="1" as="geometry"/>
                </mxCell>
                <mxCell id="gFcQEBkbsp58ij574dLz-5" value="Log is created to capture what happend" style="rounded=0;whiteSpace=wrap;html=1;" vertex="1" parent="1">
                    <mxGeometry x="350" y="840" width="120" height="60" as="geometry"/>
                </mxCell>
                <mxCell id="gFcQEBkbsp58ij574dLz-6" value="Process bubbles up the error to allow the main routine to handle" style="rounded=0;whiteSpace=wrap;html=1;" vertex="1" parent="1">
                    <mxGeometry x="500" y="840" width="120" height="60" as="geometry"/>
                </mxCell>
            </root>
        </mxGraphModel>
    </diagram>
</mxfile>